<?xml version="1.0" encoding="UTF-8"?>
<svg id="Layer_2" data-name="Layer 2" xmlns="http://www.w3.org/2000/svg" viewBox="0 0 1872.8 1872.8">
  <defs>
    <style>
      .cls-1 {
        fill: #4a5464;
      }

      .cls-2 {
        fill: #cdd1d8;
      }

      .cls-3 {
        fill: #364153;
      }
    </style>
  </defs>
  <g id="_Layer_" data-name="&amp;lt;Layer&amp;gt;">
    <g>
      <circle class="cls-3" cx="936.39" cy="936.4" r="921.44" transform="translate(-387.87 936.39) rotate(-45)"/>
      <path class="cls-1" d="M936.38,1872.8C420.05,1872.8,0,1452.73,0,936.4S420.05,0,936.38,0s936.42,420.07,936.42,936.4-420.09,936.4-936.42,936.4ZM936.38,29.92C436.57,29.92,29.93,436.57,29.93,936.4s406.64,906.48,906.46,906.48,906.49-406.64,906.49-906.48S1436.23,29.92,936.38,29.92Z"/>
      <g>
        <path class="cls-2" d="M1168.19,647.64c0,128.02-103.78,231.8-231.8,231.8s-231.79-103.78-231.79-231.8,103.78-231.8,231.79-231.8,231.8,103.78,231.8,231.8Z"/>
        <path class="cls-2" d="M1456.29,1456.95c.02-1.22.36-2.34.36-3.56,0-287.34-232.92-520.27-520.26-520.27s-520.26,232.93-520.26,520.27c0,1.22.34,2.35.34,3.56h1039.82Z"/>
      </g>
    </g>
  </g>
</svg>