<?xml version="1.0" encoding="UTF-8"?>
<svg id="Layer_1" data-name="Layer 1" xmlns="http://www.w3.org/2000/svg" viewBox="0 0 1265.63 1211.02">
  <defs>
    <style>
      .cls-1 {
        fill: #fff;
      }
    </style>
  </defs>
  <path class="cls-1" d="M.33,617.34c4.3,142.1,54.4,267.8,148.4,372,54.6,60.6,115.6,107.4,183,140.5,68.6,33.6,139.7,51.9,222,57.1,21.4,1.3,75.7.7,95-1,129.8-11.9,236.6-57.4,333.5-142.1,15.8-13.8,48.7-46.9,61.6-62,81.6-95.3,125.2-197.9,138.1-325,2.3-22.2,2.6-97.4.5-119.5-13.1-138.9-63.4-251-158.5-352.6-49.8-53.2-109.9-97.8-173.1-128.5C783.63,23.74,714.33,6.04,633.23.74c-23.3-1.5-80.5-.6-101.8,1.5-88.6,9.1-163.6,32.7-234.2,73.6-77.7,45.1-150.9,114.6-202.5,192.5C27.43,369.84-3.57,484.44.33,617.34ZM65.73,799.84c.2,0,1.6,2.2,3,4.9,1.3,2.7,7.5,13.4,13.6,23.8,75.7,127.3,168.3,218,279.6,273.7,17.3,8.6,52.4,23.5,63.1,26.6,8.7,2.7,3,1.9-11.9-1.5-64.1-14.7-119.4-40.4-171-79.6-35.1-26.7-72.1-63.9-99-99.4-28.5-37.6-53.1-82.7-72-132-5.9-15.4-6.2-16.5-5.4-16.5ZM104.73,785.04c.3.2,4.6,7.6,9.6,16.4,74.2,129.5,171.4,222.9,281.4,270.3,15.1,6.5,39,15.4,44.3,16.6,1.8.4,3.1.9,2.9,1.2-.8.7-23-3.5-38.2-7.3-65.3-16.4-124.7-50.8-179.8-104.4-55.3-53.7-91-108.5-115.8-178-4.6-13-5.5-15.9-4.4-14.8ZM142.63,770.84c.2,0,2.8,4.4,5.6,9.7,16.5,30.9,45.5,74.6,68.8,103.7,65.7,82,142.1,136,228.2,161.3,16.4,4.8,16.3,5.2-.7,2.3-63.9-10.9-120-37.5-172.2-81.8-15.7-13.4-44.8-43.4-57.4-59.2-30.1-37.8-52.3-77.6-67.8-122-5.5-15.5-5-14-4.5-14ZM181.03,756.24c.5.3,3.1,4.2,5.8,8.8,2.6,4.6,11,17.5,18.5,28.8,77.9,117.2,164,187.9,260.1,213.6,8.7,2.3,8.9,2.4,3.6,1.9-9.6-.9-31.6-5.3-44.8-8.9-42.1-11.5-82.7-32.4-117.4-60.3-16.2-13-43.7-40.7-57-57.3-11.2-14.1-27.9-38.5-36.1-53-8.2-14.3-19.3-37.8-25.6-54-3.3-8.5-6.4-16.4-6.9-17.5-1.1-2.6-1.1-2.7-.2-2.1ZM225.23,750.64c3.3,6.2,10.4,18.7,15.9,27.8,62.8,104,143.6,166.5,243.8,188.8,12.2,2.7,10.1,3.1-8.2,1.5-64.7-5.6-119.5-32.8-172-85.4-31.1-31-54.8-65.8-71.6-105.1-5.3-12.3-13.8-35.4-13.8-37.4-.1-.8,2.6,3.6,5.9,9.8ZM259.03,727.34c.5.6,3.7,5.7,7.2,11.5,40.2,66.4,88.1,120.1,135.5,151.5,29.3,19.5,60.9,32.9,90.9,38.4,12.5,2.4,9,2.6-6.9.6-52.4-6.8-96-24.1-131.8-52.1-11.2-8.8-34.4-32.8-43.2-44.6-20.4-27.5-35.8-57.4-48.5-94.3-4.4-12.5-4.3-12.2-3.2-11ZM296.73,709.94c.2.3,3,4.8,6.1,10,44.5,74.1,94,125.2,145.9,150.4,21,10.2,39.6,15.9,62,18.9l10,1.4-7,.1c-37.2.6-80.3-12.5-113-34.4-48.8-32.7-84.3-79.7-101-134-3.4-10.9-4-13.3-3-12.4ZM340.53,708.84c16.7,30.2,34.9,53.3,61.8,78.6,38,35.6,79.9,57.2,119.2,61.8l11.2,1.2-13,.8c-21.8,1.2-45.9-1.7-65.4-8-45.8-15-84.4-55.2-108.6-113.4-3.4-8.1-11.4-30.1-11.4-31.5-.1-.6,2.8,4.2,6.2,10.5ZM377.83,688.84c30,55.9,66.7,91.7,112.9,110,14.5,5.8,40.9,11.6,54.5,12.2,8.4.3-9.7,1.5-24.5,1.7-16.6.1-30.2-1.7-44-6-39.7-12.3-70.9-44.2-92-93.9-3.3-7.6-11.4-30.1-11.4-31.5-.1-.6,2,2.8,4.5,7.5ZM388.23,576.74c5.2-50.9,28.1-93.6,68.9-128.6,43-36.8,103.2-51.7,162.8-40.2,64,12.3,122.8,64.4,144.2,127.4,16.2,48,12.6,104.7-9.3,148.3-26.5,52.7-76.7,92.1-131.1,103.1-17.4,3.5-28.6,4.4-49.4,3.8-42.5-1.1-75.9-12.3-107.9-36.1-56.9-42.4-85.3-107-78.2-177.7ZM447.73,1090.84c.8,0,1.5.7,1.5,1.5,0,1.6-1.2,2-2.3.8-1.2-1.1-.8-2.3.8-2.3ZM681.23,384.34c45.3,2.1,79.8,26.1,103,71.7,9.1,17.7,14.6,32.9,22.7,62.3.3,1.1-2.9-4.8-7-13-24.4-48.4-58-83.7-97.2-102-20.9-9.8-34.8-13.4-67.8-17.7-4.5-.5,37.1-1.8,46.3-1.3ZM679.33,346.34c64.6,8.4,118.2,49.1,150,114,6.7,13.8,16.9,40.8,16.9,44.7,0,.7-2.1-2.5-4.6-7.2-6.1-11.4-10.3-18.3-19.8-32.5-31.2-47-65-79.3-103.1-98.7-22.5-11.4-42.2-17.1-71-20.5-6.6-.8-6.3-.8,6.4-1.1,8-.1,18.2.4,25.2,1.3ZM690.43,267.74c58,5.5,104.4,26.8,146.6,67.5,38,36.7,63.1,76.1,81.8,128.6,1.9,5.2,3.4,9.9,3.4,10.5,0,.5-2.7-4-6.1-10-48.7-88-111.1-151.5-175.9-179.3-18.6-8-41.5-14.6-57.8-16.7-10.1-1.3-4.3-1.7,8-.6ZM695.93,310.84c26,4.7,45.2,10.9,67.2,21.5,22.6,11,39.7,23.2,57.3,41.1,20.2,20.5,35.3,43.1,48,71.7,5.1,11.5,16.3,43.5,15.6,44.3-.3.2-2.9-3.5-5.8-8.3-2.9-4.9-10-15.8-15.8-24.3-44.2-65.2-88.8-108.4-136.1-131.8-13.8-6.9-31.7-13.5-40.1-14.8-2.5-.4-4-.9-3.3-1.1.6-.2,6.5.5,13,1.7ZM712.93,230.34c31.5,6.7,69.6,20.3,93.3,33.3,78.2,42.7,126.5,101.8,150.1,183.6,2.2,7.6,3.8,14,3.6,14.2s-2.1-3.8-4.3-8.9c-4.5-10.5-17.3-34-25.8-47.2-29.2-45.3-76.3-93.5-124.1-127-29.7-20.8-65.5-38.5-94.7-46.7-6.4-1.8-11.4-3.5-11.3-3.7.2-.2,6.1.9,13.2,2.4ZM705.43,186.14c.8.3.5.6-.6.6-1.1.1-1.7-.2-1.3-.5.3-.3,1.2-.4,1.9-.1ZM718.93,188.84c107.1,14.8,189.1,79.3,253.6,199.5,7.9,14.8,25.7,52.2,25.7,54.2,0,.4-2.4-3.6-5.4-8.9-29.2-51.7-69.7-105.5-105.4-140-32.5-31.3-77.5-61.3-125.3-83.5-17.5-8.1-49.7-21.3-52-21.3-.7,0-1-.3-.6-.6.3-.3,4.6-.1,9.4.6ZM721.23,145.84c.5,0,1,.4,1,1,0,.5-.5,1-1,1-.6,0-1-.5-1-1,0-.6.4-1,1-1ZM737.83,149.34c62.2,8.2,120.4,37.4,176.4,88.7,50,45.7,87.7,98.7,111.6,156.9,4.7,11.5,14.6,39.9,13.9,39.9-.3,0-2.3-3.7-4.6-8.2-6.6-13.2-17.4-32-28.1-49.3-51.2-82.3-115.4-146.3-189.3-188.6-23.4-13.4-60.6-30.1-83.7-37.6-4.7-1.5-8.5-2.9-8.4-3.1.2-.1,5.6.5,12.2,1.3ZM764.83,112.34c76.5,19.9,141.2,58.1,198.9,117.6,49.6,51.2,85.1,109.1,111.4,181.6,1.6,4.6,2.8,8.3,2.6,8.3s-2.4-3.9-5-8.8c-15.9-29.2-44.3-73.3-65.9-102-61.8-82.1-128.8-140.1-205.1-177.7-17.7-8.7-45.3-20.4-51.9-21.9-1.5-.4-2.6-.9-2.4-1.1.2-.3,8,1.5,17.4,4ZM756.43,67.14c.7.3.2.5-1.2.5s-1.9-.2-1.3-.5c.7-.2,1.9-.2,2.5,0ZM782.23,74.94c34.1,9.7,58.3,18.8,85.7,31.9,77.1,37.1,134.9,87.2,181.8,157.5,25.5,38.4,44,75.6,60.9,122.5,8.8,24.2,8.7,24.5-.2,7.5-22.5-42.9-40.1-70.7-66.5-105.5-38.4-50.5-85.7-98.4-135.2-137-16.1-12.5-48.5-34.3-66.5-44.6s-47.3-24.6-64.2-31.4c-7.5-3-13.6-5.5-13.5-5.7.2-.1,8.1,2,17.7,4.8Z"/>
  <path class="cls-1" d="M554.73,607.94c1.8,5.6,7.7,11.3,13.2,12.8,4.9,1.4,13.7,1.4,18.6,0,8.4-2.3,13.9-10.7,14.1-21.7.3-17.2-8.2-25.1-25.8-24-13.9.9-20.6,7.6-21.3,21.2-.2,4.4.3,8.9,1.2,11.7Z"/>
  <path class="cls-1" d="M1147.52,1003.03c96.01-9.32,154.84,99.05,92.18,172.18-48.77,56.92-141.43,43.73-173.35-23.6-29.79-62.84,11.22-141.79,81.17-148.58ZM1174.73,1048.74h-28v44h-44v28h44v44h28v-44h44v-28h-44v-44Z"/>
</svg>