<?xml version="1.0" encoding="UTF-8"?>
<svg id="Layer_1" data-name="Layer 1" xmlns="http://www.w3.org/2000/svg" viewBox="0 0 3489.82 3049.66">
  <defs>
    <style>
      .cls-1 {
        fill: #fff;
      }
    </style>
  </defs>
  <path class="cls-1" d="M1627.94,2799.66c0,138.09-111.92,250-250,250s-250-111.91-250-250,111.91-250,250-250,250,112.02,250,250Z"/>
  <path class="cls-1" d="M2954.89,2799.66c0,138.09-111.92,250-250,250s-250-111.91-250-250,112.01-250,250-250,250,111.92,250,250Z"/>
  <path class="cls-1" d="M3453.42,460.59c-31.25-38.52-78.42-60.59-129.34-60.59H809.09l-53.23-252.05C737.95,63.62,659.43,0,573.25,0H125C55.96,0,0,55.96,0,125s55.96,125,125,125h396.93s63.48,300.64,63.62,301.37l359.19,1700.69c17.91,84.32,96.43,147.95,182.61,147.95h1877.16c69.04,0,125-55.95,125-125s-55.96-125-125-125h-1825.84l-34.91-165.38,1957.23-209.13c81.1-8.7,152.2-72.95,168.99-152.69l216.11-1023.15c10.5-49.85-1.41-100.53-32.66-139.06ZM3033.8,1531.25l-1942,207.47-229.88-1088.72h2358l-186.12,881.25Z"/>
</svg>