<?xml version="1.0" encoding="UTF-8"?>
<svg id="Layer_1" data-name="Layer 1" xmlns="http://www.w3.org/2000/svg" viewBox="0 0 513.98 510.09">
  <defs>
    <style>
      .cls-1 {
        fill: #fff;
      }
    </style>
  </defs>
  <path class="cls-1" d="M481.97,178.06l16.46,11.02c7.72,6.47,13.27,15.26,14.57,25.43l-.05,235.03c-3.18,31.3-53.3,46.37-78.98,52.02-32.57,7.17-66.22,8.66-99.55,8.53-100.17-12.5-202-2.09-302.72-7.28-16.97-4.28-28.58-17.97-30.73-35.27,2.25-34.53-3.04-72.91,0-106.98.98-10.91,7.14-20.72,14.97-28.02-8.26-7.17-13.96-15.84-14.97-27.02-3.05-34.1,2.28-72.47-.05-107.02,1.22-10.89,6.83-20.86,15.02-27.96-8.26-7.17-13.96-15.84-14.97-27.02,2.02-34.42-2.75-71.98-.05-106.02C2.58,16.63,18.46,1.05,39.41,0h435.09c19.91.91,36.25,15.74,38.33,35.67,3.51,33.66-2.4,72.68.16,106.91-1.59,17.1-13.87,32.51-31.03,35.48ZM38.74,17.33c-12.42,1.56-19.75,9.81-20.82,22.18,2.69,32.31-3.53,70.29.14,101.93,1.14,9.87,7.43,17.32,16.83,20.17l232.59.48c34.72-6.9,70.52-9.63,106.01-8.08,34.64,1.51,66.37,11.28,101.99,8.09,12.26-1.1,19.48-10.73,20.5-22.5,2.77-32.23-2.13-68.37-.05-101.02-1.98-14.26-10.49-20.59-24.44-21.56l-432.76.33ZM490.62,205.38c-33.99-38.13-158.97-37.25-205.84-29.02-23.56,4.14-116.71,27.67-62.12,60.49,55.9,33.61,188.29,32.44,246.66,5.05,13.79-6.47,36.42-19.56,21.3-36.52ZM216.96,179.05H39.46c-1.54,0-8.79,2.51-10.55,3.45-6.83,3.64-10.38,11.56-10.98,19.02,2.69,32.32-3.52,70.28.14,101.93.85,7.31,4.61,14.32,11.19,17.82.95.51,5.81,2.79,6.2,2.79h153.5v-113.5c0-.5,3.17-8.08,3.79-9.21,5.55-10.03,16-15.27,24.21-22.29ZM205.96,247.05v49.5c0,2.57,6.77,10.03,9.08,11.92,48.36,39.49,183.73,35.52,240.43,15.6,9.61-3.38,40.48-16.54,40.48-28.52v-49.5c-3.18,1.91-6.09,4.33-9.33,6.17-63.48,36.21-203.19,36.13-267.69,2.35-1.62-.85-12.45-8.13-12.98-7.52ZM495.96,323.05c-18.05,12.65-39.38,19.94-60.8,24.7-49.97,11.11-108.98,11.34-159.23,1.82-24.53-4.65-49.38-12.24-69.98-26.52v49.5c0,9.24,20.85,20.39,28.33,23.67,60.22,26.43,176.41,26.8,236.03-1.32,7.45-3.51,25.64-14.05,25.64-23.36v-48.5ZM188.96,459.05v-116.5l-1.5-1.5H40.46c-.99,0-7.4,1.69-8.79,2.21-8.34,3.12-13.01,11.71-13.74,20.26-2.82,32.8,2.09,69.69.15,102.92-.71,6.61,10.52,19.61,16.39,19.61h186.5l-21.49-15.01c-2.5-1.44-6.74-11.03-7.78-11.79-.82-.59-2.56-.05-2.72-.21ZM495.96,400.05c-16.3,11.07-34.69,17.91-53.78,22.72-47.93,12.05-102.74,13.22-151.57,6.14-29.39-4.26-59.93-12.11-84.64-28.86v49.5c0,6.18,15.15,16.8,20.33,19.67,56.83,31.5,183.35,30.28,242.03,3.69,7.7-3.49,27.64-14.78,27.64-24.36v-48.5Z"/>
  <path class="cls-1" d="M63.31,62.4c34.4-33.89,88.42,14.89,56.16,52.66-33.79,39.55-93.39-15.99-56.16-52.66ZM75.32,104.69c21.55,21.68,52.78-14.92,27.15-32.65-20.7-14.32-44.9,14.79-27.15,32.65Z"/>
  <path class="cls-1" d="M392.7,68.25c10.17-.99,13.21,15.22,2.69,16.75-13.56,1.97-13.29-15.72-2.69-16.75Z"/>
  <path class="cls-1" d="M416.61,96.4c7.45,7.45-2.89,20.21-11.69,12.19-8.75-7.98,3.67-20.2,11.69-12.19Z"/>
  <path class="cls-1" d="M305.69,94.24c11.93-2.6,14.94,14.29,4.55,16.61-11.61,2.59-14.02-14.54-4.55-16.61Z"/>
  <path class="cls-1" d="M426.69,68.25c10.5-1.03,13.14,15.23,2.69,16.75-13.02,1.89-13.18-15.72-2.69-16.75Z"/>
  <path class="cls-1" d="M336.31,108.69c-7.45-7.45,2.89-20.21,11.69-12.19s-4.13,19.75-11.69,12.19Z"/>
  <path class="cls-1" d="M382.68,96.33c7.85,7.87-4.57,20.29-12.44,12.44-8-7.98,4.46-20.44,12.44-12.44Z"/>
  <path class="cls-1" d="M450.61,108.69c-7.35,7.35-19.37-3.3-12.21-11.71,7.79-9.14,20.47,3.44,12.21,11.71Z"/>
  <path class="cls-1" d="M324.62,68.34c10.11-.52,12.31,14.5,3.63,16.49-14.41,3.3-14.52-15.93-3.63-16.49Z"/>
  <path class="cls-1" d="M358.59,68.37c10.84-.73,11.94,14.59,3.65,16.47-14.17,3.21-14.46-15.73-3.65-16.47Z"/>
  <path class="cls-1" d="M290.62,68.34c10.56-.55,11.65,14.95,2.82,16.69-13.63,2.68-13.62-16.13-2.82-16.69Z"/>
  <path class="cls-1" d="M90.46,375.62c48.74,0,50.2,71.48,6.01,76.44-55.91,6.26-58.63-76.43-6.01-76.44ZM85.7,393.28c-21.88,3.72-21.36,38.65.85,41.67,33.59,4.56,33.26-47.46-.85-41.67Z"/>
  <path class="cls-1" d="M117.61,224.4c36.17,34.85-18.27,91.36-54.7,54.2-34.62-35.33,18.42-89.15,54.7-54.2ZM85.7,231.28c-22.8,3.88-21.28,40.76,3.75,41.83,30.7,1.31,29.4-47.47-3.75-41.83Z"/>
</svg>