<?xml version="1.0" encoding="UTF-8"?>
<svg id="Layer_1" data-name="Layer 1" xmlns="http://www.w3.org/2000/svg" viewBox="0 0 620.44 619.39">
  <defs>
    <style>
      .cls-1 {
        fill: #fff;
      }
    </style>
  </defs>
  <path class="cls-1" d="M443.96,619.39v-20.62h92.77v-113.39h20.62v112.1c17.2-2.32,32.13-16.18,37.99-32.23,6.44-17.63,4.75-69.83-2.59-87.57-8.49-20.55-36.42-43.83-59.24-43.83h-94.7c1.68,8.34,4.57,16.48,5.2,25.08,2.23,30.39,2.4,81.92,0,112.19-1.61,20.33-21.37,48.27-43.21,48.27h-39.3v-164.92h20.62v144.31c20.77,2.84,39.37-6.69,41.28-28.95-4.2-64.74,24.34-171.31-71.49-177.27-25.51-1.59-91.97-3.05-113.29,6.66-64.54,29.39-35.96,118.08-41.7,174.1,3.68,20.3,21.69,28.03,40.9,25.46v-144.31h20.62v164.92h-39.3c-.92,0-11.8-3.74-13.53-4.51-17.09-7.63-28.22-25.33-29.68-43.76-2.4-30.27-2.24-81.81,0-112.19.63-8.59,3.52-16.73,5.2-25.08h-94.7c-27.7,0-57.29,29.4-63.18,55.36-3.52,15.51-3.85,63.66,1.95,78.03,5.97,14.8,21.33,28.23,37.4,30.25v-112.1h20.62v113.39h92.77v20.62H61.92c-21.84,0-49.42-26.66-56.68-46.4-7.5-20.38-6.47-74.32-.03-95.35,23.57-76.98,109.95-65.82,174.01-64.46,3.74.08,7.61,2.25,11.28,1.13,18.52-26.07,44.14-40.48,76.22-42.36,25.59-1.5,62.21-1.62,87.73,0,31.21,2,56.94,17.16,74.94,42.36,3.68,1.13,7.55-1.05,11.28-1.13,34.28-.72,95.15-4.66,125.05,9.05,53.14,24.37,58.07,79.65,53.29,131.92-2.56,27.95-31.22,65.23-61.04,65.23h-114.03Z"/>
  <path class="cls-1" d="M62.57,341.08c-17.16.3-29.52-12.11-30.97-28.95-1.33-15.5-1.87-53.4.16-68.22,4.67-34.02,46.58-25.68,70.57-26.71l16.36-41.02-24.57-24.5c-14.74-17.05-16.93-30.47-1.95-48.37,7.4-8.83,41.71-43.61,50.24-47.69,30.02-14.37,44.37,17.04,64.1,32.73l40.34-15.92c4.8-23.46-8.47-60.41,22.89-69.88,10.84-3.27,60.14-2.94,73.07-1.63,9.15.92,18.51,6.03,23.64,13.73,10.9,16.38,2.11,37.96,5.35,55.2.78,4.12,12.5,5.95,16.75,7.74s22.84,11.29,24.88,10.76c19.89-15.72,33.85-47.21,64.1-32.73,7.7,3.68,46.47,42.16,52.75,50.33,23.18,30.17-11.45,50.11-29.03,70.22l16.36,41.02c24,1.03,65.91-7.31,70.57,26.71,2.03,14.82,1.49,52.72.16,68.22-1.42,16.48-14.01,29.42-30.97,28.95v-20.62c0-.71,8.81.7,10.23-8.45,1.79-11.49,1.44-50.98.11-63.09-.76-6.94-3.99-10.19-10.96-10.96-8.45-.94-51.82,1.62-54.87-.53-6.22-22.31-14.03-44.02-26.8-63.43l39.77-41c3.08-4.65,3.08-8.26,0-12.91l-45.67-45.8c-3.66-2.19-10.18-1.92-13.53.78l-38.28,39.33c-21.48-10.04-42.02-22.8-66.09-25.92-1.99-2.06,1.03-48.8-.14-57.19-1-7.15-5.35-9.21-12.09-9.82-14.05-1.27-45.56-1.5-59.36.03-6.96.77-10.18,4-10.96,10.96-1.94,17.43,1.56,38.22-.02,56.02-23.48,3.11-44.26,14.9-64.82,25.63l-39.54-39.05c-2.84-2.15-7.43-2.64-10.86-1.96-6.64,1.3-39,40.34-47.76,46.31-3.72,4.5-3.77,8.81-.6,13.59l39.77,41c-12.16,19.72-20.84,41.05-26.8,63.43-3.05,2.16-46.41-.4-54.87.53-6.97.77-10.19,4.02-10.96,10.96-1.33,12.11-1.68,51.6.11,63.09,1.43,9.15,10.23,7.74,10.23,8.45v20.62Z"/>
  <path class="cls-1" d="M454.27,279.23h-20.62c.01-48.72-29.67-93.96-74.27-113.2-82.33-35.52-172.53,24.79-173.12,113.2h-20.62c.65-100.43,99.5-169.74,194.88-134.96,55.82,20.36,93.81,75.53,93.74,134.96Z"/>
  <path class="cls-1" d="M265.31,343.2c-58.12-59.73,36.78-147.59,91.69-83.31,51.25,59.99-36.46,140.08-91.69,83.31ZM305.81,258.98c-53.23,5.12-46.99,88.3,9.81,81.96,51.71-5.78,44.24-87.16-9.81-81.96Z"/>
  <path class="cls-1" d="M90.08,384.43c-58.12-59.73,36.78-147.59,91.69-83.31,51.25,59.99-36.46,140.08-91.69,83.31ZM130.57,300.21c-53.23,5.12-46.99,88.3,9.81,81.96,51.71-5.78,44.24-87.16-9.81-81.96Z"/>
  <path class="cls-1" d="M440.55,384.43c-58.12-59.73,36.78-147.59,91.69-83.31,51.25,59.99-36.46,140.08-91.69,83.31ZM481.04,300.21c-53.23,5.12-46.99,88.3,9.81,81.96,51.71-5.78,44.24-87.16-9.81-81.96Z"/>
  <rect class="cls-1" x="268.73" y="598.77" width="82.46" height="20.62"/>
</svg>