<?xml version="1.0" encoding="UTF-8"?>
<svg id="Layer_1" data-name="Layer 1" xmlns="http://www.w3.org/2000/svg" viewBox="0 0 197.04 246.92">
  <defs>
    <style>
      .cls-1 {
        fill: #fff;
      }
    </style>
  </defs>
  <path class="cls-1" d="M2.88,0h152.29c14.24,12.57,27.13,26.91,40.87,40.13l1.01,4.49v196.54c-.22,3.05-.44,5.78-4.25,5.75l-190.3-.25c-2.29-.71-2.35-3.47-2.5-5.5V4.63C.05,2.62.7.49,2.88,0ZM150.52,6.89H7.02v233h182.5V45.89h-36.25c-1.15,0-2.75-2.71-2.75-3.75V6.89ZM184.52,38.89l-26.5-26.5v26.5h26.5Z"/>
  <path class="cls-1" d="M95.02,100.89c.25,1.45,1.52,2.17,2.11,3.64,1.73,4.33-.2,10.26-4.83,11.88-10.12,3.54-16.89-7.94-9.77-15.52-7.05.53-13.11-5.5-13.95-12.31l-6.16-55.34c-1.49-5.4-7.82-2.35-9.82-6.17-2.12-4.04,1.82-6.47,5.68-6.19,7.57.56,13.31,7.52,12.76,15l64.27-.02c5.29.46,8.79,3.16,9.2,8.69-3.41,10.43-3.83,24.9-7.73,34.82-.8,2.04-4.26,6.01-6.49,6.01h-53.25c-.47,4.37,1.47,6.89,5.81,7.44l59.34.16c4.35.96,2.92,7.89.11,7.89h-10.25c.57,2.01,2.13,3,2.45,5.29.94,6.67-3.55,11.32-10.23,10.73-5.33-.47-8.68-5.98-7.61-11.16.36-1.74,2.04-3.12,2.39-4.86h-24ZM85.02,42.89h-13c.63,2.22-.08,5.26,1.25,7h12.25l-.5-7ZM119.02,42.89h-27l.97,6.78,24.71.15.75-.75.57-6.18ZM125.52,49.89h10.25c.83-.89,2.48-7,.5-7h-10.25l-.5,7ZM86.52,56.89h-12.25l-.69.79.94,6.21h13l-1-7ZM116.77,56.89h-22.5c-1.16.61.08,6.9.56,7.03l21.62-.1c.28-.17.99-5.12.98-5.8-.02-.61-.19-.77-.65-1.13ZM134.52,56.89h-10l-1,7h9.5l1.5-7ZM88.02,70.89h-13l1,7.5h13l-1-7.5ZM116.02,70.89h-20.5l.5,7.5h19l1-7.5ZM131.52,70.89h-8.5l-1,7.5c7.39.75,8.65-.23,9.5-7.5ZM87.85,105.95c-1.41.46-1.92,3.27.02,3.86,4.13,1.24,3.09-4.86-.02-3.86ZM124.1,109.82c2.66,1.67,5.05-2.37,2.43-3.69-2.89-1.45-3.71,2.88-2.43,3.69Z"/>
  <path class="cls-1" d="M56.88,213l114.4-.12c4.72.32,4.31,7.32-.49,7.03H57.76c-4.22-.07-4.85-6.04-.88-6.92Z"/>
  <path class="cls-1" d="M173.89,172.52c1.51,1.61.71,6-2.09,5.9H57.25c-4.88-1.23-3.33-7.32,1.5-7.05h111.55c.94,0,3.01.53,3.59,1.15Z"/>
  <path class="cls-1" d="M55.15,137.77c-1.74-1.88-.73-5.78,2.09-5.9l115.76.29c2.63,1.86,1.94,5.37-.96,6.52l-113.3.25c-.93,0-3.02-.53-3.59-1.15Z"/>
  <path class="cls-1" d="M23.15,147.77c-.59-.62-.58-1.78-.65-2.6-.43-5.05-.49-15.05-.01-20.05.17-1.76.5-2.58,2.25-3.25,2.29-.88,16.39-.76,19.56-.49,2.71.24,4.89.74,5.24,3.76.52,4.48.43,14.95.01,19.53-.23,2.52-1.05,3.92-3.76,4.24-4.38.51-14.55.42-19.04.02-.99-.09-2.94-.46-3.59-1.15ZM42.52,141.89v-12.75l-.75-.75h-12.25v13.5h13Z"/>
  <path class="cls-1" d="M24.88,161.5c2.74-.63,17.67-.49,20.9-.12,2.31.27,3.48,1.45,3.75,3.75.52,4.49.43,14.94.01,19.53-.22,2.41-.66,3.43-3.26,3.74-4.59.54-15.87.47-20.54.02-1.89-.18-2.97-.65-3.24-2.76-.54-4.14-.48-16.83.02-21.04.19-1.6.68-2.75,2.37-3.13ZM42.52,168.39h-13v13h13v-13Z"/>
  <path class="cls-1" d="M24.38,201.5c6.79.47,15.34-.98,21.92-.13,2.01.26,3.01,1.86,3.24,3.76.51,4.33.42,14.6.01,19.04-.2,2.13-.91,3.94-3.25,4.25-4.02.53-16.43.46-20.54-.01-1.87-.22-3.01-.82-3.26-2.74-.52-3.93-.52-17.61,0-21.55.17-1.3.69-2.05,1.88-2.62ZM42.52,208.39h-13v13h13v-13Z"/>
</svg>