<?xml version="1.0" encoding="UTF-8"?>
<svg id="Layer_1" data-name="Layer 1" xmlns="http://www.w3.org/2000/svg" viewBox="0 0 383.54 380.58">
  <defs>
    <style>
      .cls-1 {
        fill: #fff;
      }
    </style>
  </defs>
  <path class="cls-1" d="M1.99,223.03l166.86,67.13c1.61,32.75,13.13,63.68,51.62,59.86,33.36-3.31,50.65-56.11,61.26-82.74,24.78-62.21,46.74-125.82,68.23-189.21L160.94,30.44l-77.98,199.59-27.96-10.5L139.78,6.33c2.01-3.5,6.72-6.03,10.73-6.33,75.73,17.27,152,35.1,226.98,55.02,11.9,8.71,3.24,23.3-.49,34.53-15.56,46.86-33.01,94.43-50.27,140.73-25.14,67.44-50.91,175.43-147.53,145.03l-142.52-64.48C6.12,292.87-4.94,256.8,1.99,223.03Z"/>
  <path class="cls-1" d="M161.86,139.14l1.12,14.39c9.55,5.39,86.28,31.67,87.84,36.15.66,1.9.44,5.26-.77,6.91l-40.78,32.21-8.11-.47-42.11-16.9-10.06,8.1,1.7,2.26,64.33,25.71c2.08,1.43-2.83,11.3-3.51,11.37l-71.56-29.34c-11.73-12.3,2.89-22.34,12.81-28.74l-3-52.08-10.79-4.72,4.02-12,18.86,7.12Z"/>
  <path class="cls-1" d="M227.32,91.69c-9.74-9.77-.72-27.35,13.06-24.55l68.66,21.34c13,8.46,7.44,27.22-8.3,27.31-21.09-7.65-46.2-11.96-66.73-20.27-1.79-.72-5.41-2.55-6.68-3.82Z"/>
  <path class="cls-1" d="M212.71,113.26c2.94-.54,5.42-.33,8.32.22,20.78,3.89,45.01,15.82,66,20.99,13.14,8.1,7.34,27.38-8.3,27.31l-69.45-21.55c-11.52-6-9.68-24.56,3.43-26.97Z"/>
  <path class="cls-1" d="M187.72,50.26c17.99-2.87,25.8,22.6,9.66,29.67-23.17,10.16-33.62-25.84-9.66-29.67Z"/>
  <path class="cls-1" d="M179.63,100.38c3.92,3.6,4.82,8.01,4.4,13.2-1.36,16.6-25.58,18.54-30.84,3.73-5.74-16.17,14.32-28.08,26.44-16.94Z"/>
  <path class="cls-1" d="M127.32,257.69c-11.71-12.26,8.41-29.24,18.68-16.18,9.44,12.01-8.43,26.91-18.68,16.18Z"/>
  <path class="cls-1" d="M190.7,260.26c14.13-2.9,21.03,15.34,9.23,22.22-16.53,9.64-26.46-18.68-9.23-22.22Z"/>
</svg>