<?xml version="1.0" encoding="UTF-8"?>
<svg id="Layer_1" data-name="Layer 1" xmlns="http://www.w3.org/2000/svg" viewBox="0 0 120.79 96.22">
  <defs>
    <style>
      .cls-1 {
        fill: #fff;
      }
    </style>
  </defs>
  <g>
    <path class="cls-1" d="M40.16,24.28l-.41,4.34-15.31,7.02,15.12,6.79c1.1.96.43,3.21.59,4.57l-20.88-9.5.21-3.94,20.67-9.29Z"/>
    <polygon class="cls-1" points="80.2 33.44 80.22 37.88 59.59 47.02 59.99 42.25 75.31 35.65 59.66 28.76 59.6 24.28 80.2 33.44"/>
    <path class="cls-1" d="M56.7,17.26l-9.05,31.58-4.18.25,8.88-31.43c.61-.83,3.28-.24,4.35-.4Z"/>
  </g>
  <path class="cls-1" d="M99.73,42.67h-8.93l-.29-.29V9.23H9.24v47.08h62.06c-.12,1.31.11,2.56.88,3.64.19.27,1.68,1.52,1.43,1.74-2.26-.25-4.66.48-5.73,2.63-.17.34-.61,1.6-.61,1.89v5.67h-3.84v10.38h5.86c.11,0,1.19.82,1.31,1.01.89,1.44.23,3.79-1.59,4.09l-37.94.07c-2.14-.13-3.02-3.1-1.59-4.53.1-.1.93-.64.99-.64h5.86v-10.38H3.57c-1.78,0-3.75-2.97-3.56-4.7V4.71C.27,1.76,2.03.23,4.91,0h90.12c2.06-.04,4.7,2.01,4.7,4.14v38.53ZM9,62.7c-1.88.34-1.71,2.74.33,2.85,3.18.17,2.77-3.41-.33-2.85ZM18.42,63.09c-.68-.69-3.11-.64-3.38.67-.45,2.22,3.04,2.15,3.58,1.06.21-.42.13-1.41-.2-1.74Z"/>
  <path class="cls-1" d="M101.69,52.63c.46.12,1.27.7,1.69.52.7-.3,2.71-3.01,3.67-3.65,1.18-.78,2.16-.67,3.26.17s4.96,4.68,5.76,5.77c1.35,1.84.36,2.94-.88,4.3-.83.91-2.11,1.71-2.73,2.77l.67,1.49c2.76.26,7.19-1.23,7.56,2.77.15,1.55.19,7.16-.21,8.45-.9,2.9-5.17,1.49-7.46,1.86l-.52,1.7c1.58,2.07,5.77,3.94,3.47,6.93-.74.96-4.96,5.23-5.88,5.84-2.96,1.98-4.65-2.26-6.61-3.56-.51-.34-1.2.36-1.8.43-.39,3.04,1.36,7.29-3,7.67-1.53.13-6.67.22-7.99-.09-3.2-.74-1.77-5.25-2.13-7.57l-1.69-.52c-1.98,1.65-3.99,5.73-6.93,3.47-.96-.74-5.23-4.97-5.84-5.88-1.98-2.97,2.28-4.65,3.56-6.61.31-.47-.23-1.37-.53-1.84-2.22-.25-7.07,1.07-7.37-2.19-.15-1.62-.23-7.77.09-9.15.6-2.55,5.37-1.52,7.28-1.71.3-.56.9-1.21.53-1.84-.55-.93-2.6-2.34-3.38-3.35-.92-1.2-.91-2.24,0-3.47.81-1.09,4.37-4.6,5.48-5.47,3.34-2.64,4.83,1.67,7.25,3.34l1.56-.58c.41-3.23-1.39-7.27,3.19-7.66,1.58-.14,7.21-.17,8.48.38,2.32,1,1.11,5.29,1.46,7.29ZM107.42,70.55c0-6.78-5.5-12.28-12.28-12.28s-12.28,5.5-12.28,12.28,5.5,12.28,12.28,12.28,12.28-5.5,12.28-12.28Z"/>
</svg>