<?xml version="1.0" encoding="UTF-8"?>
<svg id="Layer_1" xmlns="http://www.w3.org/2000/svg" version="1.1" viewBox="0 0 2694.2 3800">
  <!-- Generator: Adobe Illustrator 29.8.1, SVG Export Plug-In . SVG Version: 2.1.1 Build 2)  -->
  <defs>
    <style>
      .st0 {
        fill: #fff;
      }
    </style>
  </defs>
  <path class="st0" d="M2267,417.9h-362.8C1904.2,187.5,1712.6,0,1477.1,0h-259.9c-235.5,0-427.1,187.5-427.1,417.9h-362.9C191.6,417.9,0,605.4,0,835.9h2694.2c0-230.5-191.6-418-427.2-418h0ZM1217.1,216.4h259.9c116.2,0,210.8,90.4,210.8,201.5h-681.4c0-111.1,94.5-201.5,210.7-201.5h0Z"/>
  <path class="st0" d="M100.6,966.1l259.1,2751.8c4,46.4,42.8,82.1,89.4,82.1h1795.9c46.7,0,85.5-35.6,89.4-82.1l259.1-2751.8H100.6ZM738.2,3382l-120-1997.9h130.1l120,1997.9h-130.1ZM1412,3382h-129.8v-1997.9h129.8v1997.9ZM1956,3382h-130.1l119.9-1997.9h130.1l-119.9,1997.9h0Z"/>
</svg>