<?xml version="1.0" encoding="UTF-8"?>
<svg id="Layer_1" data-name="Layer 1" xmlns="http://www.w3.org/2000/svg" viewBox="0 0 3026.71 3040.95">
  <defs>
    <style>
      .cls-1 {
        fill: #c63;
        fill-rule: evenodd;
      }
    </style>
  </defs>
  <path class="cls-1" d="M1513.35,78.24c-623.45,0-1156.56,377.98-1372.64,912.29C353.42,439.96,887.74,49.4,1513.35,49.4s1159.93,390.57,1372.64,941.14C2669.91,456.23,2136.79,78.24,1513.35,78.24M1513.35,138.69c-526.22,0-985.69,277.41-1231.89,689.81C523.63,398.31,984.51,107.69,1513.35,107.69s989.72,290.62,1231.89,720.8c-246.2-412.4-705.67-689.81-1231.89-689.81h0ZM483.93,944.05c201.98-359.95,587.3-603.19,1029.42-603.19s827.43,243.23,1029.43,603.19c-205.37-345.09-589.47-577.31-1029.43-577.31s-824.06,232.21-1029.42,577.31h0ZM1513.35,309.73c-461.67,0-864.74,243.66-1080.26,605.78,211.98-377.71,616.31-632.94,1080.26-632.94s868.29,255.23,1080.26,632.94c-215.52-362.11-618.59-605.78-1080.26-605.78h0ZM1513.35,195.7c-505.16,0-946.19,266.62-1182.01,662.84C563.28,445.26,1005.7,165.98,1513.35,165.98s950.07,279.28,1182.01,692.56c-235.82-396.23-676.85-662.84-1182.01-662.84h0ZM1513.35,252.71c-483.43,0-905.49,255.16-1131.15,634.34C604.15,491.54,1027.54,224.28,1513.35,224.28s909.2,267.27,1131.16,662.78c-225.67-379.19-647.73-634.34-1131.16-634.34h0ZM534.83,972.48c192.02-342.13,558.27-573.32,978.52-573.32s786.51,231.19,978.52,573.32c-195.22-328.01-560.33-548.72-978.52-548.72s-783.3,220.71-978.52,548.72h0ZM636.57,1029.45c172.05-306.56,500.23-513.71,876.78-513.71s704.73,207.15,876.78,513.71c-174.93-293.91-502.07-491.67-876.78-491.67s-701.85,197.76-876.78,491.67h0ZM585.67,1001.01c182.03-324.37,529.25-543.56,927.67-543.56s745.65,219.19,927.67,543.56c-185.07-310.98-531.2-520.24-927.67-520.24s-742.6,209.26-927.67,520.24h0ZM941.76,1200.43c112.15-199.87,326.1-334.93,571.59-334.93s459.44,135.06,571.59,334.93c-114.03-191.62-327.31-320.56-571.59-320.56s-457.56,128.94-571.59,320.56h0ZM890.9,1171.91c122.14-217.64,355.12-364.71,622.44-364.71s500.31,147.07,622.45,364.71c-124.18-208.66-356.43-349.06-622.45-349.06s-498.27,140.4-622.44,349.06h0ZM840.02,1143.45c132.12-235.44,384.14-394.53,673.33-394.53s541.21,159.09,673.33,394.53c-134.33-225.72-385.56-377.6-673.33-377.6s-539,151.88-673.33,377.6h0ZM789.16,1114.94c142.1-253.21,413.16-424.32,724.19-424.32s582.09,171.1,724.19,424.32c-144.48-242.76-414.69-406.11-724.19-406.11s-579.71,163.35-724.19,406.11h0ZM738.31,1086.43c152.09-270.99,442.18-454.1,775.04-454.1s622.96,183.11,775.04,454.1c-154.63-259.8-443.81-434.62-775.04-434.62s-620.41,174.82-775.04,434.62h0ZM687.41,1057.98c162.06-288.79,471.21-483.95,825.93-483.95s663.87,195.15,825.94,483.95c-164.77-276.88-472.95-463.19-825.94-463.19s-661.16,186.31-825.93,463.19h0ZM423.05,1346.39v-235.26c0-20.2,16.53-36.73,36.73-36.73s36.73,16.53,36.73,36.73v455.47c0,20.2,16.53,36.73,36.73,36.73s36.73-16.53,36.73-36.73v-234.51c0-20.2,16.53-36.73,36.73-36.73s36.73,16.53,36.73,36.73,16.53,36.73,36.73,36.73,36.73-16.53,36.73-36.73v-85.08c0-20.2,16.53-36.73,36.73-36.73s36.73,16.53,36.73,36.73v209.5c0,20.2,16.53,36.73,36.73,36.73s36.73-16.53,36.73-36.73v-51.91c0-20.2,16.53-36.73,36.73-36.73,13.33,0,25.06,7.2,31.5,17.9,61.07-264.59,298.15-461.86,581.3-461.86s520.23,197.26,581.3,461.86c6.44-10.71,18.17-17.91,31.5-17.91,20.21,0,36.74,16.53,36.74,36.73v51.91c0,20.2,16.52,36.73,36.73,36.73s36.73-16.53,36.73-36.73v-209.5c0-20.2,16.53-36.73,36.73-36.73s36.73,16.53,36.73,36.73v85.08c0,20.2,16.53,36.73,36.73,36.73s36.73-16.53,36.73-36.73,16.53-36.73,36.73-36.73,36.73,16.53,36.73,36.73v234.51c0,20.21,16.53,36.73,36.73,36.73s36.74-16.52,36.74-36.73v-455.47c0-20.2,16.52-36.73,36.73-36.73s36.73,16.52,36.73,36.73v235.26c0,20.2,16.54,36.73,36.74,36.73s36.73-16.53,36.73-36.73v-14.3c0-20.2,16.52-36.73,36.73-36.73s36.73,16.53,36.73,36.73v248.82c0,20.2,16.53,36.73,36.73,36.73s36.73-16.53,36.73-36.73v-333.9c0-20.2,16.53-36.73,36.73-36.73s36.73,16.53,36.73,36.73v209.5c0,20.2,16.53,36.73,36.73,36.73s36.73-16.53,36.73-36.73v-51.91c0-20.2,16.53-36.73,36.74-36.73,6.95,0,13.45,1.96,19.01,5.34C2952.62,602.57,2303.39,0,1513.35,0S74.08,602.58,0,1373.2c5.55-3.38,12.07-5.34,19.02-5.34,20.2,0,36.73,16.53,36.73,36.73v51.91c0,20.2,16.53,36.73,36.73,36.73s36.73-16.53,36.73-36.73v-209.5c0-20.2,16.53-36.73,36.73-36.73s36.73,16.53,36.73,36.73v333.9c0,20.2,16.53,36.73,36.73,36.73s36.73-16.53,36.73-36.73v-248.82c0-20.2,16.53-36.73,36.73-36.73s36.73,16.53,36.73,36.73v14.3c0,20.2,16.53,36.73,36.73,36.73s36.73-16.53,36.73-36.73h0Z"/>
  <path class="cls-1" d="M1513.35,2175.45c-245.49,0-459.43-135.06-571.59-334.92,114.03,191.62,327.3,320.56,571.59,320.56s457.57-128.94,571.59-320.56c-112.15,199.87-326.1,334.92-571.59,334.92M1513.35,2233.74c-267.33,0-500.31-147.07-622.44-364.7,124.18,208.65,356.43,349.05,622.44,349.05s498.27-140.4,622.45-349.05c-122.14,217.64-355.12,364.7-622.45,364.7h0ZM1513.35,2962.71c623.45,0,1156.57-377.98,1372.64-912.3-212.71,550.58-747.03,941.14-1372.64,941.14s-1159.93-390.57-1372.64-941.14c216.07,534.31,749.19,912.3,1372.64,912.3h0ZM1513.35,2902.27c526.22,0,985.69-277.41,1231.89-689.81-242.17,430.19-703.05,720.81-1231.89,720.81s-989.72-290.62-1231.89-720.81c246.2,412.41,705.66,689.81,1231.89,689.81ZM1513.35,2845.25c505.16,0,946.19-266.62,1182.01-662.84-231.95,413.29-674.37,692.56-1182.01,692.56s-950.07-279.27-1182.01-692.56c235.82,396.23,676.85,662.84,1182.01,662.84h0ZM1513.35,2788.24c483.43,0,905.49-255.15,1131.16-634.35-221.95,395.52-645.35,662.78-1131.16,662.78s-909.2-267.26-1131.15-662.78c225.67,379.19,647.72,634.35,1131.15,634.35h0ZM1513.35,2731.22c461.67,0,864.74-243.66,1080.26-605.78-211.97,377.71-616.31,632.94-1080.26,632.94s-868.28-255.23-1080.26-632.94c215.52,362.12,618.59,605.78,1080.26,605.78h0ZM1513.35,2674.21c439.95,0,824.06-232.21,1029.43-577.31-201.99,359.95-587.3,603.19-1029.43,603.19s-827.44-243.24-1029.42-603.19c205.36,345.09,589.47,577.31,1029.42,577.31ZM1513.35,2617.2c418.2,0,783.3-220.71,978.52-548.72-192.02,342.13-558.27,573.32-978.52,573.32s-786.5-231.19-978.52-573.32c195.22,328.01,560.33,548.72,978.52,548.72h0ZM1513.35,2560.18c396.47,0,742.61-209.26,927.67-520.24-182.03,324.37-529.25,543.56-927.67,543.56s-745.64-219.19-927.67-543.56c185.07,310.99,531.21,520.24,927.67,520.24h0ZM1513.35,2292.04c-289.19,0-541.21-159.09-673.33-394.53,134.33,225.72,385.56,377.6,673.33,377.6s539.01-151.88,673.33-377.6c-132.12,235.44-384.15,394.53-673.33,394.53h0ZM1513.35,2350.33c-311.02,0-582.08-171.11-724.19-424.32,144.48,242.76,414.69,406.12,724.19,406.12s579.71-163.36,724.19-406.12c-142.11,253.21-413.17,424.32-724.19,424.32h0ZM1513.35,2408.62c-332.86,0-622.96-183.11-775.04-454.1,154.63,259.8,443.82,434.61,775.04,434.61s620.41-174.81,775.04-434.61c-152.08,270.99-442.18,454.1-775.04,454.1h0ZM1513.35,2466.92c-354.73,0-663.87-195.15-825.93-483.95,164.77,276.88,472.95,463.18,825.93,463.18s661.16-186.31,825.94-463.18c-162.06,288.8-471.21,483.95-825.94,483.95h0ZM1513.35,2503.17c-374.71,0-701.85-197.76-876.78-491.67,172.05,306.56,500.23,513.71,876.78,513.71s704.73-207.15,876.78-513.71c-174.93,293.91-502.07,491.67-876.78,491.67h0ZM423.05,1474.35c0-20.2-16.53-36.73-36.73-36.73s-36.73,16.53-36.73,36.73v234.52c0,20.2-16.53,36.73-36.73,36.73s-36.73-16.53-36.73-36.73-16.53-36.73-36.73-36.73-36.73,16.53-36.73,36.73v85.09c0,20.2-16.53,36.73-36.73,36.73s-36.73-16.53-36.73-36.73v-209.5c0-20.2-16.53-36.73-36.73-36.73s-36.73,16.53-36.73,36.73v51.91c0,20.2-16.53,36.73-36.73,36.73-6.95,0-13.46-1.96-19.02-5.34,74.08,770.62,723.31,1373.19,1513.35,1373.19s1439.27-602.57,1513.35-1373.19c-5.56,3.39-12.07,5.34-19.01,5.34-20.21,0-36.74-16.53-36.74-36.73v-51.9c0-20.2-16.52-36.73-36.73-36.73s-36.73,16.53-36.73,36.73v209.5c0,20.2-16.53,36.73-36.73,36.73s-36.73-16.53-36.73-36.73v-85.09c0-20.2-16.53-36.73-36.73-36.73s-36.73,16.53-36.73,36.73-16.53,36.74-36.73,36.74-36.73-16.54-36.73-36.74v-234.51c0-20.2-16.53-36.73-36.73-36.73s-36.74,16.53-36.74,36.73v455.48c0,20.2-16.52,36.73-36.73,36.73s-36.73-16.53-36.73-36.73v-235.27c0-20.2-16.54-36.73-36.74-36.73s-36.73,16.53-36.73,36.73v14.3c0,20.2-16.52,36.74-36.73,36.74s-36.73-16.54-36.73-36.74v-248.81c0-20.2-16.53-36.73-36.73-36.73s-36.73,16.53-36.73,36.73v333.91c0,20.2-16.53,36.73-36.73,36.73s-36.73-16.53-36.73-36.73v-209.5c0-20.2-16.53-36.73-36.73-36.73s-36.73,16.53-36.73,36.73v51.9c0,20.2-16.53,36.73-36.74,36.73-13.33,0-25.06-7.2-31.5-17.91-61.08,264.59-298.15,461.86-581.3,461.86s-520.22-197.26-581.3-461.86c-6.44,10.71-18.17,17.91-31.51,17.91-20.2,0-36.73-16.53-36.73-36.73v-51.91c0-20.2-16.53-36.73-36.73-36.73s-36.73,16.53-36.73,36.73v209.5c0,20.2-16.53,36.73-36.73,36.73s-36.73-16.53-36.73-36.73v-333.91c0-20.2-16.53-36.73-36.73-36.73s-36.73,16.53-36.73,36.73v248.82c0,20.2-16.53,36.73-36.73,36.73s-36.73-16.53-36.73-36.73v-14.31c0-20.2-16.53-36.73-36.73-36.73s-36.73,16.53-36.73,36.73v235.27c0,20.2-16.53,36.73-36.73,36.73s-36.73-16.53-36.73-36.73v-455.48h.02Z"/>
  <path class="cls-1" d="M1888.03,1520.48c0,206.93-167.75,374.68-374.68,374.68s-374.68-167.75-374.68-374.68,167.75-374.67,374.68-374.67,374.68,167.75,374.68,374.67"/>
</svg>